<?xml version="1.0" encoding="UTF-8" standalone="no"?>
<!-- Created with Inkscape (http://www.inkscape.org/) -->

<svg
   xmlns:dc="http://purl.org/dc/elements/1.1/"
   xmlns:cc="http://creativecommons.org/ns#"
   xmlns:rdf="http://www.w3.org/1999/02/22-rdf-syntax-ns#"
   xmlns:svg="http://www.w3.org/2000/svg"
   xmlns="http://www.w3.org/2000/svg"
   xmlns:sodipodi="http://sodipodi.sourceforge.net/DTD/sodipodi-0.dtd"
   xmlns:inkscape="http://www.inkscape.org/namespaces/inkscape"
   width="744.09448819"
   height="1052.3622047"
   id="svg2"
   version="1.1"
   inkscape:version="0.48.4 r9939"
   sodipodi:docname="New document 1">
  <defs
     id="defs4" />
  <sodipodi:namedview
     id="base"
     pagecolor="#ffffff"
     bordercolor="#666666"
     borderopacity="1.0"
     inkscape:pageopacity="0.0"
     inkscape:pageshadow="2"
     inkscape:zoom="1.2116062"
     inkscape:cx="620"
     inkscape:cy="540"
     inkscape:document-units="px"
     inkscape:current-layer="layer1"
     showgrid="false"
     inkscape:window-width="1024"
     inkscape:window-height="706"
     inkscape:window-x="-8"
     inkscape:window-y="-8"
     inkscape:window-maximized="1" />
  <metadata
     id="metadata7">
    <rdf:RDF>
      <cc:Work
         rdf:about="">
        <dc:format>image/svg+xml</dc:format>
        <dc:type
           rdf:resource="http://purl.org/dc/dcmitype/StillImage" />
        <dc:title></dc:title>
      </cc:Work>
    </rdf:RDF>
  </metadata>
  <g
     inkscape:label="Layer 1"
     inkscape:groupmode="layer"
     id="layer1">
    <g
       id="g2995"
       transform="translate(171.85039,-7.4360507)">
      <path
         id="rightLeg"
         d="m 566,612 -35,1 -26,-11 -21,27 -22,8 c 79,54 115,47 105,-24 z"
         style="fill:#ffcc00"
         inkscape:connector-curvature="0" />
      <path
         id="leftLeg"
         d="m 465,661 -35,1 -26,-11 -21,27 -22,8 c 79,54 115,47 105,-24 z"
         style="fill:#ffcc00"
         inkscape:connector-curvature="0" />
      <path
         id="penguinBody"
         d="m 436,318 c-19 15 -28 29 -38 45 -38 12 -67 59 -61 124 -45 28 -75 57 -78 74c-102 186 -78 192 -14 175 12 209 265 134 216 -29 71 -40 87 -62 74 -74 -13 -11 -54 -12 -96 -7 -16 -71 -72 -104 -121 -98c0 -13 12 -26 19 -40 z"
         style="fill:#000000;fill-opacity:1;stroke:none"
         inkscape:connector-curvature="0"
         sodipodi:nodetypes="cccsccscccc" />
    </g>
  </g>
</svg>
